<?xml version="1.0" encoding="UTF-8" standalone="no"?>
<!-- Created with Inkscape (http://www.inkscape.org/) -->

<svg
   width="1024"
   height="1024"
   viewBox="0 0 270.93333 270.93333"
   version="1.1"
   id="svg1"
   xml:space="preserve"
   inkscape:version="1.4.2 (f4327f4, 2025-05-13)"
   sodipodi:docname="icon.svg"
   inkscape:export-filename="icon.png"
   inkscape:export-xdpi="96"
   inkscape:export-ydpi="96"
   xmlns:inkscape="http://www.inkscape.org/namespaces/inkscape"
   xmlns:sodipodi="http://sodipodi.sourceforge.net/DTD/sodipodi-0.dtd"
   xmlns="http://www.w3.org/2000/svg"
   xmlns:svg="http://www.w3.org/2000/svg"><sodipodi:namedview
     id="namedview1"
     pagecolor="#ffffff"
     bordercolor="#000000"
     borderopacity="0.25"
     inkscape:showpageshadow="2"
     inkscape:pageopacity="0.0"
     inkscape:pagecheckerboard="0"
     inkscape:deskcolor="#d1d1d1"
     inkscape:document-units="px"
     inkscape:zoom="0.5"
     inkscape:cx="451"
     inkscape:cy="516"
     inkscape:window-width="1280"
     inkscape:window-height="730"
     inkscape:window-x="-6"
     inkscape:window-y="-6"
     inkscape:window-maximized="1"
     inkscape:current-layer="layer1"
     showguides="false" /><defs
     id="defs1" /><g
     inkscape:label="Layer 1"
     inkscape:groupmode="layer"
     id="layer1"><path
       style="fill:#ff0000;fill-opacity:1;stroke:#ff0000;stroke-width:6;stroke-dasharray:none;stroke-opacity:1"
       d="m 732.37366,653.52144 c 0.20494,-4.21763 0.69745,-14.42433 1.09446,-22.68155 0.99275,-20.64771 0.98691,-118.18313 -0.008,-139.1601 -2.18747,-46.10554 -4.80567,-81.96055 -8.53452,-116.87618 -0.79393,-7.43412 -1.37061,-13.70876 -1.2815,-13.94363 0.16197,-0.42694 20.73105,7.50587 40.87067,15.76245 79.09312,32.42558 161.77476,73.78124 235.49173,117.7882 l 10.5837,6.31815 -6.5417,4.60555 c -9.84075,6.92825 -46.09097,31.14472 -58.2214,38.89406 -63.48684,40.55758 -127.73316,76.16673 -196.61417,108.97531 -6.66929,3.17664 -13.27024,6.27306 -14.66877,6.88094 l -2.54279,1.10523 z"
       id="path1"
       transform="scale(0.26458333)" /><path
       style="fill:#ff00ff;fill-opacity:1;stroke:#ff00ff;stroke-width:6;stroke-dasharray:none;stroke-opacity:1"
       d="M 668.74683,953.30334 C 626.8248,920.64794 590.71254,889.94106 548.37403,850.9483 531.39424,835.31031 469.27235,773.52528 463.25935,766.29516 l -3.43112,-4.12564 12.41379,-3.49776 c 78.77995,-22.1974 155.11318,-49.83213 236.38345,-85.57733 11.79822,-5.18923 21.59415,-9.28877 21.76873,-9.1101 0.61826,0.63274 -2.80646,45.49214 -5.72914,75.04432 -6.89826,69.7506 -18.40829,141.07797 -34.2615,212.31763 -1.64913,7.4107 -3.25829,13.95042 -3.5759,14.5327 -0.40498,0.74243 -5.80643,-3.01441 -18.08083,-12.57564 z"
       id="path9"
       transform="scale(0.26458333)" /><path
       style="fill:#00ff00;fill-opacity:1;stroke:#00ff00;stroke-width:1.58749998;stroke-dasharray:none;stroke-opacity:1"
       d="M 69.66291,134.88946 C 56.142785,113.82744 44.736001,92.664144 34.787451,70.184136 33.628943,67.566343 32.608516,65.196371 32.519831,64.917527 l -0.161244,-0.506985 4.944717,0.14862 c 21.055754,0.632862 42.092622,2.694237 63.113256,6.184385 8.00801,1.329605 14.93658,2.633709 15.15601,2.852683 0.0684,0.06825 -0.74027,1.224777 -1.79703,2.57006 -13.36883,17.018903 -27.307401,37.90103 -38.434873,57.58136 -1.509903,2.67045 -2.81941,4.93219 -2.910013,5.0261 -0.09061,0.0939 -1.336091,-1.65402 -2.767744,-3.88429 z"
       id="path5" /><path
       style="fill:#ffff00;fill-opacity:1;stroke:#ffff00;stroke-width:6;stroke-dasharray:none;stroke-opacity:1"
       d="M 711.67235,354.63861 C 665.47257,337.26585 605.16132,317.82972 556.10886,304.50613 522.92027,295.49147 467.2968,282.22535 446.68362,278.40837 c -2.91937,-0.54059 -5.60881,-1.25248 -5.97654,-1.58199 -0.72768,-0.65205 9.09501,-13.09763 30.93386,-39.19396 46.29166,-55.31619 96.5155,-108.34344 148.5919,-156.886023 20.3428,-18.962362 36.38831,-33.383235 37.14416,-33.383235 0.64195,0 2.22895,5.299497 11.00447,36.747282 20.41663,73.164686 35.87777,146.687166 46.88098,222.933506 3.50102,24.26018 6.84031,50.6883 6.45077,51.05322 -0.13288,0.12447 -4.65127,-1.43187 -10.04087,-3.45856 z"
       id="path2"
       transform="scale(0.26458333)" /><path
       style="fill:#0000ff;fill-opacity:1;stroke:#0000ff;stroke-width:6;stroke-dasharray:none;stroke-opacity:1"
       d="m 147.24409,817.6948 c 0,-0.91295 8.71731,-26.21724 14.83944,-43.07538 18.73568,-51.59136 38.59633,-99.35671 63.14427,-151.86352 10.97648,-23.47813 45.75076,-91.76069 47.88314,-94.02302 0.24869,-0.26384 4.81724,5.97238 10.15233,13.85827 50.85408,75.16826 107.35948,146.74266 166.17863,210.49556 4.01693,4.35386 7.3035,8.12815 7.3035,8.3873 0,0.98185 -54.50604,14.71276 -86.32546,21.74671 -68.51782,15.14645 -148.14279,27.84913 -210.18372,33.5309 -5.39895,0.49444 -10.53084,1.01952 -11.4042,1.16686 -0.87336,0.14732 -1.58793,0.0467 -1.58793,-0.22368 z"
       id="path6"
       transform="scale(0.26458333)" /><path
       style="fill:#ffffff;fill-opacity:1;stroke:#ffffff;stroke-width:0.79374999;stroke-dasharray:none;stroke-opacity:1"
       d="m 176.80271,182.45571 c -15.37334,6.29929 -37.63297,14.11607 -50.31421,17.66867 l -5.27663,1.47831 -13.64954,-16.12965 C 95.180033,170.84094 83.214333,155.19825 75.369513,143.38761 l -2.945717,-4.43478 5.953269,-10.09801 c 11.692542,-19.83331 34.388885,-52.665752 37.853585,-54.759214 1.31053,-0.79177 6.94094,0.453075 28.6282,6.329595 14.84819,4.023175 31.37288,8.940388 36.71923,10.934866 l 9.72257,3.619395 0.95023,8.073098 c 1.90805,16.21097 2.83673,57.23943 1.56407,69.10096 -0.37377,3.48382 -0.37823,3.48679 -17.01225,10.30227 z"
       id="path42" /></g></svg>
